<svg xmlns="http://www.w3.org/2000/svg" width="1026" height="600" viewBox="0 0 1026 600">
    <g fill="none" stroke="#EBEDF4" opacity=".6">
        <path stroke-dasharray="5" d="M20.317 407.193c32.862 87.672 58.438 178.402 84.41 268.294 27.694 95.809 27.772 196.611 38.2 294.504 6.246 58.994 18.492 115.844 57.541 162.738 27.343 32.802 60.133 54.895 100.825 67.643 56.691 17.762 118.363 18.126 173.937 38.862 12.863 4.799 25.875 11.267 34.414 22.417 7.084 9.274 10.46 20.925 15.155 31.218 4.181 9.163 11.233 12.813 20.174 13.78 27.27 2.942 62.301-13.462 90.61-18.462 5.981-1.059 13.636-2.182 18.896-5.332 3.753-2.254 3.642-5.455 3.441-8.241-1.565-21.632-.584-44.33-6.006-65.643-6.214-24.431-21.72-41.33-42.926-51.954-36.361-18.183-83.26-19.534-124.57-26.743-40.77-7.143-81.813-14.936-120.895-28.931-33.082-11.826-64.087-28.575-90.15-52.343-32.648-29.802-50.283-70.969-61.12-112.531-26.621-102.232-24.414-211.795-49.828-315.533-12.642-51.616-28.66-102.81-44.458-153.535-13.525-43.44-27.96-87.256-47.458-128.053-5.487-11.488-12.181-26.95-24.395-33.12-5.928-2.994-11.908-2.448-17.628-1.37-8.493 1.604-17.025 5.403-22.122 12.566-16.883 23.69 4.064 66.442 13.953 89.737" transform="translate(-6 -375)"/>
        <path d="M85.862 337.334c20.142 46.627 35.944 94.977 50.83 143.436 9.778 31.843 19.173 63.836 28.62 95.789 14.418 48.74 23.099 98.674 30.161 148.901 7.667 54.51 13.853 109.774 24.833 163.472 12.462 60.937 32.487 119.073 82.322 159.968 39.634 32.493 88.215 50.37 137.342 62.854 30.537 7.753 61.504 13.504 92.49 18.963 28.9 5.095 59.126 7.746 86.415 19.249 36.704 15.473 54.09 45.834 71.959 78.944 6.62 12.27 17.543 20.73 29.446 27.008 28.53 15.05 61.978 21.777 94.212 27.093 4.21.695 8.576 1.377 13.092 1.89 8.991 1.014 18.048 1.327 27.088.936.65 0 1.3-.045 1.949-.09 6.341-.475 13.865-.865 19.453-4.472 3.3-2.131 3.197-5.614 2.6-9.052-11.65-64.778-27.7-132.57-84.545-170.691-33.786-22.667-76.097-25.721-115.952-31.986-45.729-7.148-91.613-14.511-136.673-24.285-55.292-11.99-112.274-27.067-161.784-55.849-51.843-30.146-79.626-75.61-98.546-130.692-24.236-70.555-34.58-145.886-48.796-219.47-14.164-73.323-35.826-144.345-58.086-215.42-13.385-42.728-27.335-86.197-46.73-125.955-5.652-11.587-12.195-23.096-21.792-32.155-6.913-6.557-15.502-13.055-24.891-15.278-5.99-1.397-14.814.513-18.635 5.797-7.192 9.93-.727 25.247 3.106 35.287 5.965 15.596 13.417 30.706 20.532 45.808" transform="translate(-6 -375)"/>
        <path stroke-dasharray="5" d="M129.402 286.08c20.625 41.58 35.907 85.422 50.026 129.471 9.738 30.469 19.009 61.203 28.396 91.8 15.198 49.548 25.474 100.313 35.608 151.092 11.075 55.452 22.767 111.183 39.9 164.808 10.081 31.544 22.338 63.03 39.866 91.482 17.905 29.05 44.73 49.975 74.372 66.175 60.374 32.984 129.617 48.918 196.562 62.233 35.867 7.131 71.956 13.07 108.057 18.871 33.667 5.413 68.503 8.428 99.508 23.688 49.177 24.141 77.468 71.056 103.624 116.914 8.868 15.558 20.502 28.92 33.55 40.802 28.63 26.066 58.928 46.759 95.795 60.08 4.608 1.767 9.327 3.23 14.126 4.377 8.375 1.802 17.198 3.02 25.845 1.296.506-.097 1-.22 1.473-.344 6.291-1.666 9.09-5.004 10.55-9.801.941-3.086-.201-7.254-1.83-11.559-29.864-78.932-59.207-168.256-129.054-219.521-36.056-26.462-79.383-30.131-123.008-36.413-54.169-7.78-108.467-15.604-162.168-25.477-68.724-12.628-139.687-27.175-203.6-56.781-30.511-14.145-59.374-33.6-79.512-60.995-17.236-23.46-30.311-50.461-41.393-77.085-28.525-68.56-45.794-141.529-64.166-213.687-17.58-69.092-39.529-136.524-62.088-204.034-12.647-37.84-25.481-76.424-43.366-111.502-5.525-10.845-12.127-21.308-20.352-30.572-10.063-11.331-21.482-24.251-34.901-30.28-5.42-2.431-13.977-6.094-19.476-2.82-12.659 7.513 22.248 57.643 27.669 67.847" transform="translate(-6 -375)"/>
        <path stroke-dasharray="5" d="M179.8 261.87c21.657 37.393 37.258 77.537 51.459 118.129 10.409 29.714 20.252 59.856 30.075 89.745 16.459 50.069 28.325 101.838 41.693 152.828 15.087 57.552 32.879 114.824 55.947 169.527 12.907 30.584 27.525 61.369 47.14 88.545 22.567 31.258 54.931 52.34 89.99 67.34 74.162 31.719 155.987 46.173 235.126 59.343 41.557 6.912 83.27 12.89 124.964 18.822 32.19 4.583 66.779 6.277 97.075 18.869 59.687 24.813 96.736 83.08 128.235 136.185 9.928 16.752 20.766 32.96 32.235 48.744 21.69 29.857 44.654 68.015 78.853 84.709 3.253 1.603 6.733 3.2 10.05 3.894 7.02 1.526 12.361-.993 15.035-5.075.236-.33.453-.672.65-1.026 2.642-5.16 1.62-13.351.553-18.654-1.058-4.71-2.654-9.283-4.755-13.63-40.828-86.974-92.065-181.769-171.744-236.433-35.657-24.456-75.464-28.805-118.36-34.367-54.309-7.042-108.883-12.806-162.995-20.426-69.46-9.781-141.507-20.835-206.608-48.517-63.422-26.975-101.433-76.252-126.395-138.21-26.815-66.568-40.75-137.835-58.998-207.4-17.545-66.724-42.767-130.273-67.858-194.335-13.935-35.569-28.351-71.78-47.425-104.271-6.323-10.643-13.783-20.57-22.249-29.61-15.782-17.038-33.074-33.667-52.922-45.837-8.392-5.147-17.708-10.898-27.232-13.442-11.059-2.953 2.316 15.636 3.95 18.07 8.164 12.17 16.829 23.976 24.486 36.483" transform="translate(-6 -375)"/>
        <path stroke-dasharray="5" d="M251.786 269.26c26.382 35.185 47.445 73.441 65.085 113.405 12.652 28.679 23.232 58.819 34.5 87.81 18.946 48.696 28.285 101.671 39.3 153.18 12.412 58.046 25.843 116.93 47.068 172.06 11.801 30.627 25.33 60.488 47.627 85.408 24.277 27.127 54.933 45.606 88.823 58.293 69.754 26.062 145.854 34.503 219.42 42.554 38.56 4.24 77.191 7.85 115.744 12.155 32.474 3.63 67.923 4.986 98.858 16.232 61.213 22.219 109.606 76.538 150.77 124.585 13.893 16.232 28.175 32.185 42.418 48.048 33.85 37.658 65.344 88.471 116.153 104.808 5.196 1.675 10.768 3.142 16.315 3.202 9.534.09 21.199-3.943 26.408-12.689.357-.579.678-1.18.961-1.798 4.15-9.389.104-19.55-3.189-28.569-2.007-5.493-5.579-11.142-9.028-15.842-37.76-51.521-84.562-98.634-133.065-140.967-51.127-44.678-106.249-86.81-165.76-118.515-20.29-10.797-41.75-21.004-64.3-26.77-20.997-5.363-43.645-6.233-65.2-7.655-49.316-3.246-98.884-3.402-148.167-5.194-62.097-2.214-127.298-4.876-186.479-25.972-29.675-10.577-57.044-27.692-77.996-51.404-19.374-21.933-28.298-51.027-33.565-79.167-12.314-65.676-7.099-133.806-10.788-200.552-1.838-33.29-5.514-66.747-14.373-98.965-8.145-29.627-21.94-57.312-35.812-84.453-17.536-34.334-37.157-68.487-61.104-98.126-8.055-9.874-17.158-18.845-27.148-26.758-22.634-18.076-47.159-35.496-74.508-45.664-9.885-3.675-20.855-6.675-30.974-7.824-14.685-1.675-1.429 15.271 1.831 19.349 9.743 12.187 20.492 23.537 30.175 35.776" transform="translate(-6 -375)"/>
        <path stroke-dasharray="5" d="M337.527 249.894c34.956 32.313 66.111 68.008 90.74 108.273 16.172 26.438 31.825 55.525 40.073 85.08 13.951 49.982 10.392 105.157 9.093 157.645-1.436 57.875-3.514 116.705 6.04 173.003 5.157 30.385 16.51 58.42 39.878 80.023 21.94 20.298 48.497 33.923 77.114 42.07 60.233 17.137 125.077 15.663 187.11 14.968 33.325-.376 66.656-1.116 99.981-.532 29.994.526 61.974.377 91.253 7.595 81.536 20.123 157.344 72.818 225.371 119.652 23.992 16.52 48.25 32.943 72.028 49.716 38.32 27.023 74.69 57.025 112.796 84.548 32.935 23.797 68.683 45.172 108.782 53.403 8.658 1.778 18.017 3.31 26.512 2.382 11.918-1.298 29.59-5.654 31.565-20.694.12-.86.161-1.729.123-2.596-.65-14.846-14.886-28.27-24.4-38.084-6.043-6.139-12.415-11.944-19.09-17.39-68.448-56.772-146.321-104.71-223.98-149.297-79.38-45.504-161.469-88.469-246.298-121.56-47.243-18.43-92.519-30.99-143.692-30.51-43.022.422-85.914 5.72-128.598 9.737-52.913 4.986-109.34 10.445-161.202-4.927-27.551-8.165-53.219-23.907-72.508-45.289-19.485-21.55-25.05-51.222-24.817-78.731.552-65.38 23.602-131.122 35.481-196.489 5.631-30.982 9.82-62.724 7.489-94.265-2.267-30.638-13.302-56.895-27.025-83.736-18.66-36.533-40.742-72.15-67.365-102.84-8.987-10.33-19.08-19.644-30.097-27.776-29.227-21.629-62.85-40.797-100.254-43.874-11.815-.973-25.655-.448-36.443 4.784-30.539 14.807 33.397 56.026 44.34 65.71" transform="translate(-6 -375)"/>
        <path d="M427.274 183.162c40.563 34.973 78.396 73.11 106.994 117.865 17.25 27.003 34.72 57.955 39.536 89.304 8.267 53.778-9.158 112.052-22.54 165.57-14.436 57.715-36.02 120.82-29.898 179.023 3.016 28.795 14.299 52.07 38.028 70.849 20.92 16.473 45.675 27.377 71.955 31.693 50.696 8.496 103.451-1.501 153.536-9.744 52.535-8.613 106.954-19.085 160.373-13.122 37.872 4.223 75.08 19.17 110.32 32.888 53.114 20.683 105.018 44.574 156.155 69.505 32.653 15.908 65.378 32.082 97.615 48.828 64.09 33.291 126.634 69.856 190.062 104.62 46.841 25.679 96.549 53.623 149.084 64.692 7.292 1.533 15.364 2.65 22.657 1.176 15.416-3.125 9.235-23.04 4.764-31.303-.67-1.187-1.408-2.334-2.21-3.436-13.473-19.156-34.174-33.778-53.243-46.62-8.892-6.003-18.238-11.823-27.473-17.468-87.742-53.641-180.125-101.119-273.222-145.595-86.033-41.105-173.762-80.983-263.876-111.617-44.645-15.174-86.553-26.879-134.064-23.306-38.847 2.923-77.09 11.634-115.15 19.175-47.627 9.438-98.667 19.604-147.036 8.724-26.062-5.846-51.19-19.585-69.966-38.637-20.863-21.163-26.375-49.926-25.146-77.715 2.899-65.354 32.113-130.902 52.132-194.976 9.918-31.719 19.296-64.275 22.098-97.527 2.47-29.05-2.652-53.954-15.261-79.677-17.446-35.61-40.09-68.43-67.19-97.384-9.524-10.05-19.684-19.478-30.418-28.224-34.284-28.146-74.802-52.921-118.484-63.717-11.017-2.715-25.803-5.138-36.397.032-32.874 16.045 45.372 67.01 56.272 76.124M948.23 40.014c38.813 26.21 50.246 63.297 57.667 107.41 9.09 53.884 22.613 106.689 46.337 155.622 15.582 32.195 36.195 72.561 66.723 93.678 35.274 24.395 87.61 12.399 124.85 1.652 55.388-15.984 112.827-41.153 162.786-71.618 19.614-11.957 30.742-18.384 49.92-4.423 2.721 1.951 6.175 4.742 9.915 2.784 2.876-1.503 5.194-5.484 7.447-9.205 4.9-8.227 10.436-16.058 16.556-23.42 5.564-6.622 12.569-14.995 12.569-24.22 0-6.056-2.954-10.317-5.454-13.498-4.35-5.549-13.9-22.06-23.009-18.332-7.7 3.155-14.777 9.83-22.074 14.67-19.18 12.757-39.67 23.926-60.017 34.172-68.36 34.433-167.181 75.957-236.385 20.603-48.44-38.76-80.695-89.976-92.03-150.274-7.59-40.392-12.382-80.667-33.859-116.447-8.044-13.394-18.828-24.297-32.112-31.707-13.556-7.546-33.87-10.747-48.42-2.986-12.641 6.766-12.576 27.206-1.41 35.54z" transform="translate(-6 -375)"/>
        <path stroke-dasharray="5" d="M872.769 54.01c-9.764.182-16.207 10.118-12.888 18.658.646 1.556 1.62 2.957 2.858 4.107 21.55 19.46 39.45 44.443 48.752 71.696 4.094 12.013 7.4 24.428 10.499 36.816 5.858 23.398 11.904 46.932 17.346 70.421 6.047 26.09 11.716 52.503 18.225 78.457 2.864 11.366 5.917 22.822 9.113 34.085 10.004 34.933 22.306 69.613 38.858 101.79 12.204 23.735 26.726 44.196 54.877 49.811 28.405 5.66 59.74-.899 86.927-7.698 75.244-18.831 148.925-53.583 221.005-83.942 12.816-5.395 27.624-13.255 40.883-11.954 11.065 1.086 21.48 6.76 32.076 12.051 2.226 1.107 4.674 2.245 7.043 2.504 1.73.262 3.487-.279 4.764-1.469 2.213-2.076 3.359-6.527 4.257-10.945 1.452-7.116 2.825-14.29 4.166-21.439.475-2.503.937-4.974 1.425-7.394 1.836-9.134 3.294-19.342.43-28.463-1.736-5.352-4.707-10.226-8.676-14.232-7.85-8.358-19.638-22.816-33.196-19.95-10.187 2.154-19.885 7.652-29.336 12.142-21.239 10.078-42.816 19.62-64.185 29.317-25.45 11.554-51.336 22.79-77.456 32.287-39.835 14.465-87.943 30.91-131.273 23.289-37.882-6.696-62.603-40.542-81.603-70.338-25.053-39.286-39.62-83.787-49.884-129.484-4.758-21.16-8.195-42.941-13.064-63.927-4.224-18.216-9.841-36.35-18.355-52.651-6.517-12.573-15.575-23.672-26.609-32.604-15.074-12.259-37.29-21.309-56.98-20.94z" transform="translate(-6 -375)"/>
        <path d="M793.6 83.183c-6.678-.647-18.665-.058-18.6 9.833.064 1.18.455 2.321 1.13 3.294 15.372 25.626 36.642 46.89 48.674 74.438 5.542 12.693 10.395 25.89 14.897 39.018 8.446 24.836 16.508 50.365 23.674 75.428 8.03 28.079 13.766 57.381 19.795 86.25 2.755 13.16 5.496 26.35 8.342 39.484 8.7 40.073 18.483 80.263 32.289 118.666 9.595 26.694 19.659 59.48 44.04 76.982 25.227 18.124 59.192 14.097 87.706 9.638 97.288-15.244 188.34-60.987 284.51-83.603 19.068-4.48 40.637-10.946 59.672-6.15 15.644 3.949 30.58 12.797 45.6 19.07 2.885 1.203 6.036 2.246 8.94 2.4 2.046.11 3.937-.381 5.301-2.051 1.858-2.265 2.417-6.835 2.43-11.522 0-7.812-.435-15.683-1.17-23.502-.253-2.732-.584-5.45-.89-8.085-1.136-9.903-2.981-20.376-7.484-29.277-2.914-5.523-6.762-10.504-11.375-14.725-12.669-11.522-26.383-24.183-44.828-23.302-12.993.647-25.597 5.314-37.836 9.223-24.149 7.71-47.92 16.066-71.464 25.367-27.89 11.004-55.872 22.603-83.976 32.876-44.62 16.298-95.502 34.727-144.013 32.966-48.9-1.774-68.709-41.426-87.27-80.23-25.597-53.531-40.689-111.709-53.61-169.945-5.432-24.467-11.24-48.954-17.457-73.143-4.925-19.166-10.44-38.5-18.496-56.17-5.898-12.97-13.884-24.893-23.642-35.297-16.534-17.638-41.533-35.75-64.889-37.93z" transform="translate(-6 -375)"/>
        <path stroke-dasharray="5" d="M706.893 101.93c-8.525-3.473-20.49-8.126-29.47-4.77-.675.209-1.187.763-1.343 1.453-1.299 10.319 13.634 23.396 19.672 30.704 11.51 13.881 23.457 27.711 33.11 42.833 8.441 13.207 16.414 26.998 23.627 40.886 13.945 27.012 25.773 55.066 35.377 83.908 9.81 29.373 17.29 57.76 20.84 88.664 1.559 13.577 2.702 27.388 3.734 41.081 3.11 41.127 5.018 82.96 12.79 123.152 5.843 30.185 14.153 63.555 30.741 90.21 17.647 28.36 46.746 43.287 78.137 46.727 113.78 12.525 229.708-54.068 343.637-65.892 38.195-3.965 75.552 4.971 110.449 20.157 33.93 14.758 66.359 37.265 101.366 50.011 4.11 1.493 7.693 2.33 10.089 1.772 1.675-.396 2.63-1.694 2.279-4.731-.41-3.563-2.714-9.482-5.415-15.654-4.395-10.046-9.09-20.08-13.861-29.944-1.636-3.368-3.246-6.613-4.817-9.735-5.363-10.792-10.79-22.13-17.958-31.521-4.447-5.951-9.5-11.426-15.076-16.335-17.75-15.297-37.007-30.438-61.217-32.709-40.59-3.81-87.862 9.93-125.875 20.897-29.975 8.651-59.957 18.743-89.894 27.907-49.79 15.193-102.58 31.054-155.208 31.84-23.885.356-46.693-4.9-64.047-22.235-16.712-16.692-25.632-40.471-34.514-61.706-26.534-63.438-43.103-130.726-59.905-197.584-7.142-28.504-16.095-56.566-24.405-84.765-6.26-21.28-12.752-42.774-21.386-62.893-6.035-14.163-13.77-27.54-23.036-39.835-20.132-26.621-47.862-49.446-78.421-61.894z" transform="translate(-6 -375)"/>
        <path d="M604.5 90.246c-11.581-6.133-24.767-12.494-38.206-14.086-1.254-.16-2.521-.203-3.782-.11-12.666.52 12.828 23.39 15.141 25.56 14.622 13.788 30.16 26.822 43.86 41.396 12.003 12.775 23.7 26.198 34.488 39.96 20.523 26.198 38.647 54.748 52.639 84.897 13.991 30.148 18.65 58.783 16.682 91.81-.845 14.23-2.697 28.778-4.868 42.981-6.641 43.332-17.351 86.93-22.297 130.367-3.574 31.318-3.593 62.883 2.307 94.253 6.603 35.145 23.707 62.376 53.894 79.185 59.475 33.06 136.939 17.764 202.633 3.112 60.437-13.469 126.074-38.484 188.7-34.112 76.392 5.335 153.323 42.995 220.714 76.112 39.817 19.565 79.12 40.72 118.424 61.571 30.92 16.413 62.192 34.781 94.51 46.958 5.731 2.163 12.172 4.801 18.423 4.9 2.925.044 4.796-1.242 4.088-4.725-1.17-5.75-4.861-11.429-7.798-16.517-6.804-11.734-14.837-23.118-23.084-34.04-2.95-3.899-5.874-7.648-8.773-11.247-9.962-12.391-20.522-24.58-32.2-35.217-8.942-8.11-18.339-15.703-28.146-22.741-45.536-32.774-94.88-61.038-147.025-80.615-28.288-10.63-58.24-19.356-88.81-21.695-27.476-2.1-55.687 2.443-82.299 7.933-30.088 6.212-60.164 14.665-90.077 22.43-50.293 13.066-101.957 25.88-154.349 25.58-24.922-.143-50.247-5.035-70.991-19.492-22.33-15.594-34.625-37.855-43.69-62.234-25.82-69.484-31.025-144.433-38.297-218.927-3.528-36.107-9.897-69.803-21.92-103.915-8.448-23.918-18.137-47.822-29.932-70.083-8.196-15.382-17.663-30.052-28.302-43.858-27.183-35.36-62.79-64.813-101.658-85.39z" transform="translate(-6 -375)"/>
        <path stroke-dasharray="5" d="M652.097 356.636c-5.04 60.279-31.345 119.754-50.746 177.705-19.018 56.811-42.68 131.343-9.412 183.215 28.624 44.625 94.264 55.897 146.497 52.578 53.85-3.429 106.266-18.271 158.876-29.225 24.5-5.101 49.24-9.645 74.245-11.291 28.293-1.854 54.163 2.593 81.312 10.487 100.148 29.167 196.151 75.925 288.933 122.417 71.492 35.837 142.106 73.955 213.039 111.211 27.13 14.26 54.286 28.52 81.974 41.696 16.576 7.875 34.223 17.092 52.409 20.23 4.605.796 8.34.304 8.67-2.594 1.65-14.427-16.53-34.06-26.031-45.027-16.043-18.518-35.983-33.99-56-48.346-121.024-86.814-260.031-157.01-400.422-208.862-44.037-16.262-93.737-35.992-141.502-35.169-39.795.687-79.142 10.228-117.736 19.088-83.787 19.238-234.07 54.672-268.396-50.686-18.264-56.065-9.899-120.991-1.098-180.835 8.268-56.293 24.96-118.736 13.997-174.776-8.73-44.625-38.405-88.577-67.809-122.923-34.02-39.725-78.057-71.232-125.432-93.373-13.237-6.183-28.39-12.646-43.284-13.132-25.33-.83-4.644 19.84 3.897 27.113 16.712 14.22 35.723 25.725 52.61 39.537 41.764 34.145 80.481 72.97 107.494 119.423 17.212 29.62 26.786 57.2 23.915 91.54z" transform="translate(-6 -375)"/>
    </g>
</svg>
